<svg xmlns="http://www.w3.org/2000/svg" version="1.1" xmlns:xlink="http://www.w3.org/1999/xlink" xmlns:svgjs="http://svgjs.dev/svgjs" width="2000" height="2250" viewBox="0 0 2000 2250"><g transform="matrix(1,0,0,1,0,0)"><svg viewBox="0 0 320 360" data-background-color="#ffffff" preserveAspectRatio="xMidYMid meet" height="2250" width="2000" xmlns="http://www.w3.org/2000/svg" xmlns:xlink="http://www.w3.org/1999/xlink"><g id="tight-bounds" transform="matrix(1,0,0,1,0,0)"><svg viewBox="0 0 320 360" height="360" width="320"><g><svg></svg></g><g><svg viewBox="0 0 320 360" height="360" width="320"><g><path d="M320 187.111c0-45.764-20.238-86.866-52.203-114.908-28.043-31.964-69.145-52.203-114.908-52.203-84.302 0-152.889 68.587-152.889 152.889 0 45.753 20.231 86.848 52.185 114.891 28.043 31.975 69.152 52.22 114.926 52.22 0.299 0 0.59-0.021 0.889-0.021 0.299 0 0.59 0.021 0.889 0.021 83.456 0 151.111-67.655 151.111-151.111 0-0.299-0.021-0.59-0.021-0.889 0-0.299 0.021-0.59 0.021-0.889zM59.833 263.097c-15.093-21.255-24.071-47.143-24.256-75.097 0.48-72.928 59.492-131.943 132.423-132.423 27.954 0.185 53.845 9.163 75.097 24.256 24.366 23.627 39.57 56.64 39.57 93.056 0 71.559-58.219 129.778-129.778 129.778-36.416 0-69.429-15.204-93.056-39.57zM3.556 172.889c0-82.343 66.99-149.333 149.333-149.333 35.051 0 67.292 12.167 92.8 32.462-22.98-13.824-49.863-21.796-78.578-21.796-84.302 0-152.889 68.587-152.889 152.889 0 28.708 7.968 55.584 21.785 78.56-20.288-25.5-32.452-57.739-32.451-92.782zM167.111 318.667c-35.84 0-68.363-14.418-92.107-37.743 21.952 15.89 48.864 25.298 77.885 25.298 73.522 0 133.333-59.812 133.333-133.333 0-29.02-9.408-55.932-25.298-77.885 23.324 23.744 37.742 56.267 37.743 92.107 0 72.54-59.015 131.556-131.556 131.556z" fill="#496fad" fill-rule="nonzero" stroke="none" stroke-width="1" stroke-linecap="butt" stroke-linejoin="miter" stroke-miterlimit="10" stroke-dasharray="" stroke-dashoffset="0" font-family="none" font-weight="none" font-size="none" text-anchor="none" style="mix-blend-mode: normal" data-fill-palette-color="tertiary"></path></g><g transform="matrix(1,0,0,1,79.53999999999999,99)"><svg viewBox="0 0 160.92000000000002 162" height="162" width="160.92000000000002"><g><svg viewBox="0 0 160.92000000000002 162" height="162" width="160.92000000000002"><g><svg viewBox="0 0 160.92000000000002 162" height="162" width="160.92000000000002"><g><svg viewBox="0 0 160.92000000000002 162" height="162" width="160.92000000000002"><g id="textblocktransform"><svg viewBox="0 0 160.92000000000002 162" height="162" width="160.92000000000002" id="textblock"><g><svg viewBox="0 0 160.92000000000002 162" height="162" width="160.92000000000002"><g transform="matrix(1,0,0,1,0,0)"><svg width="160.92000000000002" viewBox="2.5 -36.05 37.25 37.5" height="162" data-palette-color="#496fad"><path d="M17.45-20.6Q19.8-24.05 22.9-28.85L22.9-28.85 24.6-31.5Q23-31.95 20.9-31.95L20.9-31.95Q19.1-31.95 17.15-31.65 15.2-31.35 14.85-31.3L14.85-31.3Q11.8-30.85 8.8-30.55L8.8-30.55 8.2-30.5Q6.7-30.5 5.4-31.18 4.1-31.85 2.7-33.1L2.7-33.1Q2.55-33.2 2.53-33.63 2.5-34.05 2.5-34.25L2.5-34.25 5.65-34.7Q11-35.4 14.08-35.73 17.15-36.05 20.4-36.05L20.4-36.05Q22.4-36.05 24.4-35.9L24.4-35.9Q26.6-35.7 28.38-35.13 30.15-34.55 31.65-33.35L31.65-33.35Q32.45-32.75 32.83-32.27 33.2-31.8 33.2-31.3L33.2-31.3Q33.2-30.5 32.05-29.35L32.05-29.35Q26.6-23.9 20.45-16.15L20.45-16.15Q19.3-14.75 18.03-12.93 16.75-11.1 15.6-9.35L15.6-9.35 13.9-6.9Q13.65-6.5 13-5.15L13-5.15 12.5-4.15 39.7-5.8Q39.75-5.6 39.75-5.2L39.75-5.2Q39.75-3.6 38.05-3.15L38.05-3.15Q33.15-2.05 30.65-1.7L30.65-1.7Q29.05-1.5 25.75-1.2L25.75-1.2Q22.6-0.9 20.85-0.65L20.85-0.65Q18.45-0.3 13.35 0.8L13.35 0.8 11.7 1.15Q10.1 1.45 9.35 1.45L9.35 1.45Q8.05 1.45 7 0.95L7 0.95Q4.85 0 4.85-1.65L4.85-1.65Q4.85-2.65 5.7-3.9L5.7-3.9Q13.6-15 17.45-20.6L17.45-20.6Z" opacity="1" transform="matrix(1,0,0,1,0,0)" fill="#496fad" class="wordmark-text-0" data-fill-palette-color="primary" id="text-0"></path></svg></g></svg></g></svg></g></svg></g></svg></g></svg></g></svg></g></svg></g><defs></defs></svg><rect width="320" height="360" fill="none" stroke="none" visibility="hidden"></rect></g></svg></g></svg>